<svg xmlns="http://www.w3.org/2000/svg" width="19.822" height="13.515" viewBox="0 0 19.822 13.515">
    <g transform="translate(0 -74.667)">
        <g transform="translate(0 74.667)">
            <path d="M173.37,170.667a2.7,2.7,0,1,0,2.7,2.7A2.705,2.705,0,0,0,173.37,170.667Z" transform="translate(-163.459 -166.612)"></path>
            <path d="M9.911,74.667A10.656,10.656,0,0,0,0,81.425a10.647,10.647,0,0,0,19.822,0A10.652,10.652,0,0,0,9.911,74.667Zm0,11.263a4.505,4.505,0,1,1,4.505-4.505A4.507,4.507,0,0,1,9.911,85.93Z" transform="translate(0 -74.667)"></path>
        </g>
    </g>
</svg>