<svg width="30" height="30" viewBox="0 0 30 30" fill="none" xmlns="http://www.w3.org/2000/svg">
<path d="M28.5001 15C28.5001 22.5041 22.6321 28.5 15.4996 28.5C8.36704 28.5 2.49902 22.5041 2.49902 15C2.49902 7.49587 8.36704 1.5 15.4996 1.5C22.6321 1.5 28.5001 7.49587 28.5001 15Z" stroke="#009342" stroke-width="3"/>
<path d="M16.3118 18.5861C15.7777 18.9889 15.2654 19.1201 14.6443 18.8861C14.1175 18.6877 13.785 18.3932 13.6292 17.8361C13.467 17.2561 13.7419 16.8818 13.9918 16.3361C14.2682 15.7325 15.0068 14.9861 15.0068 14.9861L16.732 13.4399C16.732 13.4399 17.5102 12.9547 17.6894 12.4361C17.8323 12.0224 17.8169 11.7302 17.6894 11.3111C17.5903 10.9853 17.2544 10.5611 17.2544 10.5611C17.2544 10.5611 16.7549 9.93298 16.3118 9.73612C15.7135 9.47025 15.2498 9.48813 14.6443 9.73612C14.1756 9.92809 13.9192 10.1861 13.6292 10.5611C13.3392 10.9361 12.4543 12.1649 12.4543 12.1649C12.4543 12.1649 12.0113 12.7447 11.5992 12.7361C11.2141 12.7281 10.988 12.6392 10.6566 12.4361C10.3977 12.2774 10.2133 12.1885 10.0766 11.9111C9.90943 11.5719 10.0243 11.313 10.0766 10.9361C10.1633 10.3116 10.3168 9.96002 10.6566 9.43612C11.0589 8.81605 12.0342 8.16112 12.0342 8.16112C12.0342 8.16112 13.166 7.3878 13.9918 7.18612C14.8736 6.97076 15.4104 6.95946 16.3118 7.06501C17.0666 7.15339 17.4976 7.28164 18.1969 7.56112C18.9808 7.87444 19.444 8.11804 20.0095 8.76112C20.5295 9.35249 20.7705 9.78404 20.952 10.5611C21.1183 11.2729 21.1024 11.7206 20.952 12.4361C20.7772 13.2681 20.4761 13.6848 20.0095 14.3861C19.1092 15.7392 17.961 15.8038 17.0945 17.1149C16.7368 17.6563 16.8241 18.1998 16.3118 18.5861Z" fill="#009342"/>
<ellipse cx="15.2093" cy="21.8" rx="1.74006" ry="1.8" fill="#009342"/>
</svg>
