<svg width="30" height="30" viewBox="0 0 30 30" fill="none" xmlns="http://www.w3.org/2000/svg">
<circle cx="15" cy="15" r="14.25" stroke="#009342" stroke-width="1.5"/>
<path d="M15.8931 18.6317C15.3108 19.0708 14.7522 19.2138 14.0751 18.9587C13.5008 18.7424 13.1383 18.4213 12.9685 17.814C12.7916 17.1816 13.0913 16.7735 13.3637 16.1786C13.665 15.5205 14.4703 14.7068 14.4703 14.7068L16.3512 13.0211C16.3512 13.0211 17.1997 12.492 17.395 11.9267C17.5508 11.4756 17.534 11.1571 17.395 10.7002C17.2869 10.3449 16.9207 9.88248 16.9207 9.88248C16.9207 9.88248 16.3761 9.19765 15.8931 8.98303C15.2408 8.69316 14.7352 8.71266 14.0751 8.98303C13.5641 9.19232 13.2846 9.47364 12.9685 9.88248C12.6523 10.2913 11.6875 11.631 11.6875 11.631C11.6875 11.631 11.2046 12.2631 10.7552 12.2537C10.3354 12.245 10.0888 12.148 9.7276 11.9267C9.44527 11.7537 9.24427 11.6567 9.09523 11.3543C8.91297 10.9845 9.03817 10.7022 9.09523 10.2913C9.18978 9.61046 9.3571 9.22713 9.7276 8.65596C10.1661 7.97993 11.2295 7.2659 11.2295 7.2659C11.2295 7.2659 12.4634 6.42279 13.3637 6.20292C14.3251 5.96812 14.9103 5.9558 15.8931 6.07088C16.716 6.16723 17.1859 6.30706 17.9483 6.61176C18.803 6.95334 19.3079 7.21893 19.9244 7.92005C20.4914 8.56477 20.7541 9.03527 20.952 9.88248C21.1333 10.6585 21.116 11.1466 20.952 11.9267C20.7614 12.8337 20.4332 13.288 19.9244 14.0526C18.9429 15.5278 17.6911 15.5983 16.7464 17.0277C16.3564 17.6179 16.4516 18.2104 15.8931 18.6317Z" fill="#009342"/>
<ellipse cx="14.691" cy="22.1363" rx="1.89709" ry="1.96243" fill="#009342"/>
</svg>
